# Blender 4.0.2
# www.blender.org
mtllib payload2.mtl
o payload_Cube.002
v -0.763051 -0.499072 0.763049
v -1.000000 -0.021149 0.999999
v -0.763051 -0.499072 -0.763051
v -1.000000 -0.021149 -1.000000
v 0.763051 -0.499072 0.763049
v 1.000000 -0.021149 0.999999
v 0.763051 -0.499072 -0.763051
v 1.000000 -0.021149 -1.000000
v -0.472237 -0.021149 0.585659
v -0.472237 -0.021149 -0.585660
v 0.472237 -0.021149 -0.585660
v 0.472237 -0.021149 0.585659
v -0.472237 0.541369 0.585658
v -0.472237 0.541369 -0.585660
v 0.472237 0.541369 -0.585660
v 0.472237 0.541369 0.585658
vn -0.8959 -0.4442 -0.0000
vn -0.0000 -0.4442 -0.8959
vn 0.8959 -0.4442 -0.0000
vn -0.0000 -0.4442 0.8959
vn -0.0000 -1.0000 -0.0000
vn -0.0000 1.0000 -0.0000
vn -0.0000 -0.0000 1.0000
vn -0.0000 -0.0000 -1.0000
vn 1.0000 -0.0000 -0.0000
vn -1.0000 -0.0000 -0.0000
s 0
usemtl Material.001
f 1//1 4//1 3//1
f 4//2 7//2 3//2
f 8//3 5//3 7//3
f 6//4 1//4 5//4
f 7//5 1//5 3//5
f 6//6 11//6 12//6
f 2//6 10//6 4//6
f 6//6 9//6 2//6
f 4//6 11//6 8//6
f 1//1 2//1 4//1
f 4//2 8//2 7//2
f 8//3 6//3 5//3
f 6//4 2//4 1//4
f 7//5 5//5 1//5
f 6//6 8//6 11//6
f 2//6 9//6 10//6
f 6//6 12//6 9//6
f 4//6 10//6 11//6
usemtl Material.003
f 12//7 13//7 9//7
f 14//6 16//6 15//6
f 10//8 15//8 11//8
f 11//9 16//9 12//9
f 9//10 14//10 10//10
f 12//7 16//7 13//7
f 14//6 13//6 16//6
f 10//8 14//8 15//8
f 11//9 15//9 16//9
f 9//10 13//10 14//10
