# Blender v2.79 (sub 0) OBJ File: 'model.blend'
# www.blender.org
mtllib payload.mtl
o payload_Cube.002
v -0.763051 -0.528054 -4.125490
v -1.000000 -0.050131 -3.888540
v -0.763051 -0.528054 -5.651591
v -1.000000 -0.050131 -5.888540
v 0.763051 -0.528054 -4.125490
v 1.000000 -0.050131 -3.888540
v 0.763051 -0.528054 -5.651591
v 1.000000 -0.050131 -5.888540
v -0.472237 -0.050131 -4.302881
v -0.472237 -0.050131 -5.474199
v 0.472237 -0.050131 -5.474199
v 0.472237 -0.050131 -4.302881
v -0.472237 0.512387 -4.302881
v -0.472237 0.512387 -5.474199
v 0.472237 0.512387 -5.474199
v 0.472237 0.512387 -4.302881
vn -0.8959 -0.4442 0.0000
vn 0.0000 -0.4442 -0.8959
vn 0.8959 -0.4442 0.0000
vn 0.0000 -0.4442 0.8959
vn 0.0000 -1.0000 0.0000
vn 0.0000 1.0000 0.0000
vn 0.0000 0.0000 1.0000
vn 0.0000 0.0000 -1.0000
vn 1.0000 0.0000 0.0000
vn -1.0000 0.0000 0.0000
usemtl Material.002
s off
f 1//1 2//1 4//1 3//1
f 3//2 4//2 8//2 7//2
f 7//3 8//3 6//3 5//3
f 5//4 6//4 2//4 1//4
f 3//5 7//5 5//5 1//5
f 6//6 8//6 11//6 12//6
f 4//6 2//6 9//6 10//6
f 2//6 6//6 12//6 9//6
f 8//6 4//6 10//6 11//6
usemtl Material.001
f 9//7 12//7 16//7 13//7
f 15//6 14//6 13//6 16//6
f 11//8 10//8 14//8 15//8
f 12//9 11//9 15//9 16//9
f 10//10 9//10 13//10 14//10
